<svg id="Layer_1" data-name="Layer 1" xmlns="http://www.w3.org/2000/svg" xmlns:xlink="http://www.w3.org/1999/xlink" viewBox="0 0 688.95 372.16"><defs><style>.cls-1{fill:#aed581;}.cls-2{fill:url(#linear-gradient);}.cls-3{fill:url(#linear-gradient-2);}</style><linearGradient id="linear-gradient" x1="401.98" y1="186.08" x2="593.66" y2="186.08" gradientUnits="userSpaceOnUse"><stop offset="0" stop-color="#f2f2f2"/><stop offset="0" stop-color="#ffa094"/><stop offset="1" stop-color="#ff6a6a"/></linearGradient><linearGradient id="linear-gradient-2" x1="613.3" y1="186.87" x2="671.43" y2="186.87" xlink:href="#linear-gradient"/></defs><path class="cls-1" d="M118.24,355.25q-21.58,0-37.29.48t-30,.47q-41.58,0-41.57-27.6,0-27,44.42-35.22,6.34-1,17.3-3T87.78,287c-1.49-1.06-2.65-1.9-3.5-2.54Q7.81,216.9,7.81,153.13a100.5,100.5,0,0,1,2.86-23.8Q22.4,78.24,78.89,47.15q26.65-14.59,60.76-23.49A270.92,270.92,0,0,1,208,14.78,193.57,193.57,0,0,1,274.67,26.2q31.41,11.43,51.24,34.91t19.84,59.33q0,20.94-7.94,43.47,12.69,4.77,12.7,20.63a54.55,54.55,0,0,1-1.27,11.1,176.35,176.35,0,0,0-4.45,39.67q0,31.1,10.16,64.09,4.44,14.6,4.44,24.75,0,17.46-10.31,24.12t-28.72,7.61q-18.41,1-42.84,1-20.94,0-50.76-.32t-59.34-.79Q137.92,355.25,118.24,355.25ZM206.13,56a230.87,230.87,0,0,0-54.26,6.66,208.68,208.68,0,0,0-50.93,19.36Q77.63,94.74,63.18,112.51a61.75,61.75,0,0,0-14.43,40q0,23.49,16.34,49t46.48,52.19a19.28,19.28,0,0,1,7,15.23,19.66,19.66,0,0,1-3.49,11.43q4.77-1.59,11.74-3.81t15.87-5.08q33.32-10.16,57.43-21.1a236,236,0,0,0,43.16-25.07,244,244,0,0,0,36.8-34.11q24.75-42.19,24.75-71.39,0-23.81-15.07-37.76T252,62.06A177.76,177.76,0,0,0,206.13,56Zm98.05,170.08q-34.9,37.13-72.66,55.21-38.4,18.09-60.29,24.75-11.11,3.17-17.77,5.23t-8.25,2.7q15.22,0,37.92.63t47.59,1.12q24.92.47,46.8.47,11.75,0,21.74-.16t17.29-.79a251.11,251.11,0,0,1-12.69-77.42Q303.86,231.82,304.18,226.11Z"/><path class="cls-2" d="M593.66,290.11a159.45,159.45,0,0,1-1.8,21.71S589,329.23,579.52,339c-9.43,9.6-26.93,12.57-26.93,12.57a157.91,157.91,0,0,1-21.71,1.83h-118A11,11,0,0,1,402,342.48V29.69a11,11,0,0,1,10.93-10.93h107.5a148.77,148.77,0,0,1,21.69,1.92s21,3.75,33.23,15.1,16.24,32,16.24,32a136.85,136.85,0,0,1,2.09,21.66Zm-47.48,2.33c.05-1.47.09-7.58.09-13.59V98A115.33,115.33,0,0,0,544,77c-1.24-5.55-12.7-15.89-14.35-16.58S518,59.34,512,59.34H460.57a11,11,0,0,0-10.93,10.93v231.1a11,11,0,0,0,10.93,10.93h59.32c6,0,14.05-1.12,17.86-2.49S546.13,293.9,546.18,292.44Z"/><path class="cls-3" d="M642.63,21.64q28.8,0,28.8,29.32,0,29.59-28.8,29.59-14.14,0-21.74-7.72T613.3,51q0-14.13,7.59-21.73T642.63,21.64Zm22,319.53a11,11,0,0,1-10.93,10.93H630.51a11,11,0,0,1-10.93-10.93V108.5a11,11,0,0,1,10.93-10.93h23.18a11,11,0,0,1,10.93,10.93Z"/></svg>